<svg width="32" height="32" viewBox="0 0 32 32" fill="none" xmlns="http://www.w3.org/2000/svg">
<path d="M23 12.0542C23 12.3194 22.8946 12.5738 22.7071 12.7613C22.5196 12.9488 22.2652 13.0542 22 13.0542C21.7348 13.0542 21.4804 12.9488 21.2929 12.7613C21.1054 12.5738 21 12.3194 21 12.0542C21 11.789 21.1054 11.5346 21.2929 11.3471C21.4804 11.1596 21.7348 11.0542 22 11.0542C22.2652 11.0542 22.5196 11.1596 22.7071 11.3471C22.8946 11.5346 23 11.789 23 12.0542ZM20 15.0542C20.2652 15.0542 20.5196 14.9488 20.7071 14.7613C20.8946 14.5738 21 14.3194 21 14.0542C21 13.789 20.8946 13.5346 20.7071 13.3471C20.5196 13.1596 20.2652 13.0542 20 13.0542C19.7348 13.0542 19.4804 13.1596 19.2929 13.3471C19.1054 13.5346 19 13.789 19 14.0542C19 14.3194 19.1054 14.5738 19.2929 14.7613C19.4804 14.9488 19.7348 15.0542 20 15.0542ZM25 14.0542C25 14.3194 24.8946 14.5738 24.7071 14.7613C24.5196 14.9488 24.2652 15.0542 24 15.0542C23.7348 15.0542 23.4804 14.9488 23.2929 14.7613C23.1054 14.5738 23 14.3194 23 14.0542C23 13.789 23.1054 13.5346 23.2929 13.3471C23.4804 13.1596 23.7348 13.0542 24 13.0542C24.2652 13.0542 24.5196 13.1596 24.7071 13.3471C24.8946 13.5346 25 13.789 25 14.0542ZM22 17.0542C22.2652 17.0542 22.5196 16.9488 22.7071 16.7613C22.8946 16.5738 23 16.3194 23 16.0542C23 15.789 22.8946 15.5346 22.7071 15.3471C22.5196 15.1596 22.2652 15.0542 22 15.0542C21.7348 15.0542 21.4804 15.1596 21.2929 15.3471C21.1054 15.5346 21 15.789 21 16.0542C21 16.3194 21.1054 16.5738 21.2929 16.7613C21.4804 16.9488 21.7348 17.0542 22 17.0542ZM9 11.0542H11V13.0542H13V15.0542H11V17.0542H9V15.0542H7V13.0542H9V11.0542Z" fill="white"/>
<path d="M6.10194 6.52004C6.06778 6.39305 6.059 6.26057 6.07611 6.13018C6.09322 5.99979 6.13588 5.87406 6.20164 5.76018C6.2674 5.6463 6.35498 5.54651 6.45937 5.46652C6.56375 5.38654 6.68288 5.32792 6.80994 5.29404L10.6739 4.25804C10.8068 4.22264 10.9455 4.21501 11.0814 4.23562C11.2173 4.25624 11.3475 4.30466 11.4639 4.37785C11.5803 4.45105 11.6803 4.54745 11.7577 4.66104C11.8352 4.77463 11.8883 4.90297 11.9139 5.03804C13.2239 4.88004 14.6139 4.80404 15.9999 4.80404C17.4399 4.80404 18.8859 4.88604 20.2399 5.05604C20.2633 4.91892 20.315 4.78819 20.3918 4.67221C20.4686 4.55622 20.5687 4.45752 20.6858 4.38242C20.8029 4.30731 20.9343 4.25746 21.0717 4.23605C21.2092 4.21463 21.3496 4.22212 21.4839 4.25804L25.3479 5.29404C25.4954 5.33351 25.6318 5.4062 25.7468 5.50655C25.8618 5.6069 25.9523 5.73225 26.0114 5.87299C26.0705 6.01372 26.0966 6.16611 26.0876 6.31848C26.0787 6.47085 26.035 6.61916 25.9599 6.75204C26.2413 6.93337 26.4899 7.13137 26.7059 7.34604C27.5219 8.16204 28.2659 9.44604 28.8959 10.89C29.5359 12.356 30.0939 14.072 30.5059 15.822C30.9179 17.572 31.1859 19.382 31.2339 21.034C31.2819 22.666 31.1159 24.238 30.5779 25.454C30.3326 26 29.921 26.4544 29.402 26.7525C28.883 27.0506 28.2831 27.1772 27.6879 27.114C26.4159 26.98 25.4579 26.326 24.6619 25.568C24.1719 25.104 23.6699 24.516 23.1839 23.952C22.9319 23.656 22.6839 23.368 22.4479 23.106C20.9919 21.498 19.2539 20.052 15.9999 20.052C12.7459 20.052 11.0079 21.498 9.55194 23.106C9.31394 23.368 9.06794 23.656 8.81594 23.952C8.32994 24.516 7.82794 25.102 7.33794 25.568C6.54194 26.328 5.58394 26.98 4.31194 27.114C3.71676 27.1772 3.11684 27.0506 2.59784 26.7525C2.07884 26.4544 1.66729 26 1.42194 25.454C0.881944 24.238 0.717944 22.664 0.763944 21.034C0.811944 19.382 1.08394 17.574 1.49394 15.822C1.90594 14.072 2.46594 12.356 3.10394 10.89C3.73394 9.44604 4.47794 8.16204 5.29194 7.34604C5.55291 7.08902 5.84363 6.8641 6.15794 6.67604L6.10194 6.52004ZM10.1739 7.34404C8.41994 7.71404 7.23594 8.23004 6.70794 8.76004C6.15594 9.31204 5.53394 10.326 4.93794 11.69C4.30806 13.1741 3.80754 14.7098 3.44194 16.28C3.05896 17.858 2.83187 19.4697 2.76394 21.092C2.71994 22.602 2.88794 23.828 3.24994 24.644C3.32408 24.803 3.4461 24.9347 3.59889 25.0208C3.75169 25.1069 3.9276 25.143 4.10194 25.124C4.75594 25.056 5.32194 24.726 5.95994 24.12C6.38394 23.716 6.75994 23.274 7.18994 22.772C7.45594 22.46 7.74194 22.126 8.06994 21.764C9.72194 19.938 11.9559 18.054 15.9999 18.054C20.0439 18.054 22.2779 19.938 23.9299 21.764C24.2579 22.126 24.5439 22.46 24.8099 22.772C25.2379 23.274 25.6159 23.716 26.0399 24.12C26.6759 24.726 27.2419 25.056 27.8979 25.126C28.0725 25.1448 28.2486 25.1084 28.4014 25.022C28.5542 24.9355 28.6761 24.8033 28.7499 24.644C29.1099 23.828 29.2799 22.604 29.2359 21.092C29.168 19.4697 28.9409 17.858 28.5579 16.28C28.1924 14.7098 27.6918 13.1741 27.0619 11.69C26.4659 10.326 25.8419 9.31004 25.2919 8.76004C24.7639 8.23004 23.5799 7.71404 21.8259 7.34404C20.1259 6.98604 18.0719 6.80404 15.9999 6.80404C13.9279 6.80404 11.8739 6.98604 10.1739 7.34404Z" fill="white"/>
</svg>
