<svg width="32" height="32" viewBox="0 0 32 32" fill="none" xmlns="http://www.w3.org/2000/svg">
<g clip-path="url(#clip0_68_14)">
<path d="M27.0898 5.81392C25.0151 4.86108 22.8255 4.18141 20.5758 3.79192C20.5555 3.78848 20.5345 3.79145 20.5159 3.8004C20.4973 3.80936 20.4819 3.82386 20.4718 3.84192C20.1898 4.34192 19.8778 4.99592 19.6598 5.50792C17.235 5.14024 14.7687 5.14024 12.3438 5.50792C12.1017 4.93709 11.8266 4.38081 11.5198 3.84192C11.5098 3.82386 11.4944 3.80936 11.4758 3.8004C11.4572 3.79145 11.4362 3.78848 11.4158 3.79192C9.16585 4.17992 6.97585 4.85992 4.90185 5.81392C4.88401 5.82054 4.86912 5.8333 4.85985 5.84992C0.71185 12.0479 -0.426151 18.0939 0.13185 24.0639C0.13585 24.0932 0.14985 24.1179 0.17385 24.1379C2.58979 25.9264 5.29138 27.2924 8.16385 28.1779C8.18413 28.1843 8.20593 28.1841 8.22607 28.1772C8.24621 28.1704 8.26365 28.1573 8.27585 28.1399C8.89318 27.2999 9.43852 26.4139 9.91185 25.4819C9.92169 25.4627 9.92506 25.4409 9.92145 25.4196C9.91785 25.3983 9.90746 25.3788 9.89185 25.3639L9.85585 25.3419C8.99457 25.0098 8.16011 24.612 7.35985 24.1519C7.33751 24.1393 7.3209 24.1185 7.31345 24.0939C7.306 24.0693 7.3083 24.0428 7.31985 24.0199L7.34985 23.9819C7.51918 23.8552 7.68452 23.7252 7.84585 23.5919C7.85998 23.5806 7.87694 23.5732 7.89491 23.5708C7.91288 23.5683 7.93118 23.5708 7.94785 23.5779C13.1858 25.9699 18.8559 25.9699 24.0299 23.5779C24.047 23.57 24.0661 23.5671 24.0849 23.5696C24.1036 23.572 24.1213 23.5798 24.1358 23.5919C24.2972 23.7252 24.4625 23.8552 24.6318 23.9819C24.6459 23.9915 24.6573 24.0046 24.6649 24.0199C24.6725 24.0352 24.6761 24.0521 24.6753 24.0691C24.6745 24.0862 24.6693 24.1027 24.6603 24.1172C24.6513 24.1317 24.6388 24.1437 24.6238 24.1519C23.827 24.6193 22.9912 25.0168 22.1258 25.3399C22.1121 25.3449 22.0995 25.3529 22.0892 25.3632C22.0788 25.3736 22.0708 25.3861 22.0658 25.3999C22.061 25.4132 22.059 25.4274 22.06 25.4416C22.0611 25.4557 22.0651 25.4695 22.0718 25.4819C22.5518 26.4119 23.1018 27.2999 23.7058 28.1399C23.7181 28.1573 23.7355 28.1704 23.7556 28.1772C23.7758 28.1841 23.7976 28.1843 23.8179 28.1779C26.696 27.2972 29.4023 25.9309 31.8198 24.1379C31.8319 24.1294 31.8419 24.1184 31.8491 24.1056C31.8564 24.0928 31.8607 24.0786 31.8618 24.0639C32.5299 17.1619 30.7438 11.1659 27.1298 5.85192C27.1267 5.84284 27.1214 5.83466 27.1145 5.82805C27.1075 5.82143 27.0991 5.81659 27.0898 5.81392ZM10.6938 20.4279C9.11585 20.4279 7.81785 18.9799 7.81785 17.2039C7.81785 15.4279 9.09185 13.9779 10.6938 13.9779C12.3078 13.9779 13.5938 15.4379 13.5698 17.2039C13.5698 18.9799 12.2958 20.4279 10.6938 20.4279ZM21.3258 20.4279C19.7498 20.4279 18.4499 18.9799 18.4499 17.2039C18.4499 15.4279 19.7239 13.9779 21.3258 13.9779C22.9398 13.9779 24.2278 15.4379 24.2018 17.2039C24.2018 18.9799 22.9398 20.4279 21.3258 20.4279Z" fill="white"/>
</g>
<defs>
<clipPath id="clip0_68_14">
<rect width="32" height="32" fill="white"/>
</clipPath>
</defs>
</svg>
