<svg width="32" height="32" viewBox="0 0 32 32" fill="none" xmlns="http://www.w3.org/2000/svg">
<g clip-path="url(#clip0_68_20)">
<path d="M31.9999 16.098C31.9999 7.20605 24.8358 -0.00195312 15.9998 -0.00195312C7.15985 4.68753e-05 -0.00415039 7.20605 -0.00415039 16.1C-0.00415039 24.1341 5.84785 30.794 13.4958 32.002V20.7521H9.43585V16.1H13.4998V12.55C13.4998 8.51605 15.8898 6.28805 19.5438 6.28805C21.2959 6.28805 23.1258 6.60205 23.1258 6.60205V10.562H21.1078C19.1218 10.562 18.5019 11.804 18.5019 13.078V16.098H22.9378L22.2298 20.75H18.4998V32C26.1479 30.792 31.9999 24.1321 31.9999 16.098Z" fill="white"/>
</g>
<defs>
<clipPath id="clip0_68_20">
<rect width="32" height="32" fill="white"/>
</clipPath>
</defs>
</svg>
