<svg width="32" height="32" viewBox="0 0 32 32" fill="none" xmlns="http://www.w3.org/2000/svg">
<g clip-path="url(#clip0_68_18)">
<path d="M16.0071 8.8127C11.4643 8.8127 7.79998 12.0189 7.79998 15.9939C7.79998 19.9689 11.4643 23.1752 16.0071 23.1752C20.55 23.1752 24.2143 19.9689 24.2143 15.9939C24.2143 12.0189 20.55 8.8127 16.0071 8.8127ZM16.0071 20.6627C13.0714 20.6627 10.6714 18.5689 10.6714 15.9939C10.6714 13.4189 13.0643 11.3252 16.0071 11.3252C18.95 11.3252 21.3428 13.4189 21.3428 15.9939C21.3428 18.5689 18.9428 20.6627 16.0071 20.6627ZM26.4643 8.51895C26.4643 9.4502 25.6071 10.1939 24.55 10.1939C23.4857 10.1939 22.6357 9.44395 22.6357 8.51895C22.6357 7.59395 23.4928 6.84395 24.55 6.84395C25.6071 6.84395 26.4643 7.59395 26.4643 8.51895ZM31.9 10.2189C31.7786 7.9752 31.1928 5.9877 29.3143 4.3502C27.4428 2.7127 25.1714 2.2002 22.6071 2.0877C19.9643 1.95645 12.0428 1.95645 9.39999 2.0877C6.84284 2.19395 4.57141 2.70645 2.69284 4.34395C0.814272 5.98145 0.2357 7.96895 0.107129 10.2127C-0.0428711 12.5252 -0.0428711 19.4564 0.107129 21.7689C0.228557 24.0127 0.814272 26.0002 2.69284 27.6377C4.57141 29.2752 6.8357 29.7877 9.39999 29.9002C12.0428 30.0314 19.9643 30.0314 22.6071 29.9002C25.1714 29.7939 27.4428 29.2814 29.3143 27.6377C31.1857 26.0002 31.7714 24.0127 31.9 21.7689C32.05 19.4564 32.05 12.5314 31.9 10.2189ZM28.4857 24.2502C27.9286 25.4752 26.85 26.4189 25.4428 26.9127C23.3357 27.6439 18.3357 27.4752 16.0071 27.4752C13.6786 27.4752 8.67141 27.6377 6.57141 26.9127C5.17141 26.4252 4.09284 25.4814 3.52856 24.2502C2.69284 22.4064 2.8857 18.0314 2.8857 15.9939C2.8857 13.9564 2.69999 9.5752 3.52856 7.7377C4.0857 6.5127 5.16427 5.56895 6.57141 5.0752C8.67856 4.34395 13.6786 4.5127 16.0071 4.5127C18.3357 4.5127 23.3428 4.35019 25.4428 5.0752C26.8428 5.5627 27.9214 6.50644 28.4857 7.7377C29.3214 9.58145 29.1286 13.9564 29.1286 15.9939C29.1286 18.0314 29.3214 22.4127 28.4857 24.2502Z" fill="white"/>
</g>
<defs>
<clipPath id="clip0_68_18">
<rect width="32" height="32" fill="white"/>
</clipPath>
</defs>
</svg>
