<svg width="32" height="32" viewBox="0 0 32 32" fill="none" xmlns="http://www.w3.org/2000/svg">
<g clip-path="url(#clip0_68_52)">
<path d="M10.052 29.9999C22.128 29.9999 28.734 19.9939 28.734 11.3319C28.7367 11.0506 28.7327 10.7693 28.722 10.4879C30.0077 9.55641 31.1176 8.40382 32 7.08392C30.7982 7.61247 29.5253 7.96153 28.222 8.11992C29.5952 7.29934 30.6236 6.00795 31.116 4.48592C29.8265 5.25136 28.4144 5.78794 26.942 6.07192C25.9524 5.01797 24.6428 4.31976 23.2162 4.08544C21.7895 3.85112 20.3254 4.09376 19.0507 4.7758C17.7759 5.45783 16.7616 6.54118 16.1649 7.85804C15.5682 9.1749 15.4224 10.6518 15.75 12.0599C13.1394 11.9296 10.5853 11.2517 8.25366 10.0703C5.92202 8.88876 3.86495 7.23008 2.216 5.20192C1.37916 6.64821 1.1239 8.35869 1.50201 9.98629C1.88013 11.6139 2.86329 13.0367 4.252 13.9659C3.21082 13.9323 2.19239 13.6527 1.28 13.1499V13.2399C1.28255 14.7547 1.80764 16.2222 2.76665 17.3947C3.72565 18.5672 5.05984 19.373 6.544 19.6759C5.98054 19.8312 5.39846 19.9086 4.814 19.9059C4.40184 19.9102 3.99033 19.872 3.586 19.7919C4.00479 21.0965 4.82155 22.2372 5.92167 23.054C7.02179 23.8707 8.35004 24.3225 9.72 24.3459C7.39221 26.1719 4.51849 27.1629 1.56 27.1599C1.0386 27.1638 0.517492 27.1338 0 27.0699C3.00284 28.9849 6.49053 30.0015 10.052 29.9999Z" fill="white"/>
</g>
<defs>
<clipPath id="clip0_68_52">
<rect width="32" height="32" fill="white"/>
</clipPath>
</defs>
</svg>
